# xmcd
#
# Track frame offsets:
#	150
#	4130
#	19252
#	46099
#	63223
#	94101
#	117297
#	132239
#	152822
#	199505
#	224647
#	245781
#	275564
#	321873
#
# Disc length: 4574 seconds
#
# Revision: 2
# Processed by: cddbd v1.5.1PL2 Copyright (c) Steve Scherf et al.
# Submitted via: EasyCDDAExtractor 9.0.0.1
#
DISCID=c811dc0e
DTITLE=Whitesnake - Dome Brighton 01-11-78
DYEAR=1978
DGENRE=Hard Rock
TTITLE0=Intro
TTITLE1=Come On
TTITLE2=Might Just Take Your Life 
TTITLE3=Lie Down
TTITLE4=Ain't No Love In The Heart Of The City
TTITLE5=Trouble
TTITLE6=Micky Moody Solo
TTITLE7=Steal Away 
TTITLE8=Mistreated
TTITLE9=Belgian Tom's Hat Trick
TTITLE10=Jon Lord Solo 
TTITLE11=Take Me With You
TTITLE12=Rock Me Baby
TTITLE13=Breakdown - Whitesnake Boogie 
EXTD=
EXTT0=
EXTT1=
EXTT2=
EXTT3=
EXTT4=
EXTT5=
EXTT6=
EXTT7=
EXTT8=
EXTT9=
EXTT10=
EXTT11=
EXTT12=
EXTT13=
PLAYORDER=
